<svg width="59" height="58" viewBox="0 0 59 58" fill="none" xmlns="http://www.w3.org/2000/svg">
<g clip-path="url(#clip0)" filter="url(#filter0_d)">
<path d="M29.5694 35.6138C29.5541 35.6138 29.5394 35.6114 29.5241 35.6114L31.8727 37.6594H27.1296L29.48 35.6114C19.7233 35.587 10.9483 31.7798 4.8501 25.7191C5.50678 36.3582 13.1347 44.6212 26.002 46.4H33.1367C46.004 44.6229 53.6308 36.3612 54.2886 25.7197C48.1698 31.7988 39.3608 35.6138 29.5694 35.6138Z" fill="#FA7F7F"/>
<path d="M28.4447 4.1294C29.3301 3.81317 29.6734 3.81317 30.5582 4.1294C31.4671 2.49765 32.8598 0.965948 34.316 0.413298C31.2907 -0.131611 27.674 -0.136375 24.6287 0.39305C26.106 0.927239 27.5241 2.47561 28.4447 4.1294Z" fill="#FA7F7F"/>
<path d="M30.6223 7.50904H28.3995C28.3995 7.50904 28.0144 5.5563 28.3995 5.13645C28.7922 4.70827 30.2731 4.66539 30.6229 5.13645C30.9639 5.59799 30.6223 7.50904 30.6223 7.50904Z" fill="#FA7F7F"/>
<path d="M53.057 13.0498C54.8206 11.2632 46.0022 -0.647336 37.7717 4.71242C39.0327 3.64821 39.6177 3.37605 40.0874 3.06638C39.5318 2.30827 38.5547 1.6913 37.3102 1.21488C36.1708 2.40534 34.7822 4.39679 34.7822 5.98864C39.4172 4.3557 43.8346 3.98468 47.2897 7.87587C41.3114 7.39468 38.6253 7.18922 36.5159 8.79477C38.2484 9.75119 40.2902 11.4359 40.065 17.1524C31.3777 8.35229 27.621 8.35169 18.9314 17.1524C18.7062 11.4353 20.7474 9.75119 22.4799 8.79477C20.3711 7.18922 17.6844 7.39468 11.7061 7.87587C15.1612 3.98468 19.5804 4.3557 24.2142 5.98864C24.2142 4.37416 22.7862 2.34817 21.6374 1.16367C20.3729 1.62699 19.3652 2.22907 18.7726 2.96871C19.3417 3.28732 19.8355 3.53744 21.2271 4.71242C12.9965 -0.647336 4.1781 11.2632 5.94179 13.0498C3.17221 14.4523 4.02642 21.3604 4.52202 24.2642C5.19104 24.9449 5.89946 25.5916 6.63256 26.2152V24.1636L7.22046 24.6864V26.7059C10.0535 29.0016 13.3187 30.8674 16.8937 32.1889V30.2796L17.4816 30.5208V32.3985C21.1442 33.6783 25.1166 34.393 29.2719 34.4174V32.8035H29.8603V34.4138C39.6465 34.3185 48.4226 30.4184 54.475 24.263C54.9717 21.3616 55.8265 14.4529 53.057 13.0498Z" fill="#FA7F7F"/>
</g>
<defs>
<filter id="filter0_d" x="0" y="0" width="59" height="66" filterUnits="userSpaceOnUse" color-interpolation-filters="sRGB">
<feFlood flood-opacity="0" result="BackgroundImageFix"/>
<feColorMatrix in="SourceAlpha" type="matrix" values="0 0 0 0 0 0 0 0 0 0 0 0 0 0 0 0 0 0 127 0"/>
<feOffset dy="4"/>
<feGaussianBlur stdDeviation="2"/>
<feColorMatrix type="matrix" values="0 0 0 0 0 0 0 0 0 0 0 0 0 0 0 0 0 0 0.25 0"/>
<feBlend mode="normal" in2="BackgroundImageFix" result="effect1_dropShadow"/>
<feBlend mode="normal" in="SourceGraphic" in2="effect1_dropShadow" result="shape"/>
</filter>
<clipPath id="clip0">
<rect width="51" height="58" fill="white" transform="translate(4)"/>
</clipPath>
</defs>
</svg>
